<svg xmlns="http://www.w3.org/2000/svg" xmlns:xlink="http://www.w3.org/1999/xlink" width="260" zoomAndPan="magnify" viewBox="0 0 194.87999 44.999999" height="60" preserveAspectRatio="xMidYMid meet" version="1.0"><defs><g/><clipPath id="d5677f1790"><path d="M 179 15 L 194.761719 15 L 194.761719 35 L 179 35 Z M 179 15 " clip-rule="nonzero"/></clipPath></defs><g fill="#ff00ff" fill-opacity="1"><g transform="translate(-1.330855, 33.697927)"><g><path d="M 1.316406 -18.425781 L 1.316406 0 L 4.476562 0 L 4.476562 -7.632812 L 10.792969 -7.632812 L 10.792969 0 L 13.953125 0 L 13.953125 -18.425781 L 10.792969 -18.425781 L 10.792969 -10.792969 L 4.476562 -10.792969 L 4.476562 -18.425781 Z M 1.316406 -18.425781 "/></g></g></g><g fill="#ff00ff" fill-opacity="1"><g transform="translate(16.749501, 33.697927)"><g><path d="M 4.476562 -15.269531 L 10.792969 -15.269531 L 10.792969 -10.792969 L 4.476562 -10.792969 L 4.476562 -15.269531 L 1.316406 -15.269531 L 1.316406 0 L 4.476562 0 L 4.476562 -7.632812 L 10.792969 -7.632812 L 10.792969 0 L 13.953125 0 L 13.953125 -15.269531 L 10.792969 -15.269531 L 10.792969 -18.425781 L 4.476562 -18.425781 Z M 4.476562 -15.269531 "/></g></g></g><g fill="#ff00ff" fill-opacity="1"><g transform="translate(34.803541, 33.697927)"><g><path d="M 1.316406 -15.269531 L 1.316406 -3.160156 L 4.476562 -3.160156 L 4.476562 0 L 10.792969 0 L 10.792969 -3.160156 L 4.476562 -3.160156 L 4.476562 -15.269531 Z M 4.476562 -18.425781 L 4.476562 -15.269531 L 10.792969 -15.269531 L 10.792969 -12.109375 L 13.953125 -12.109375 L 13.953125 -15.269531 L 10.792969 -15.269531 L 10.792969 -18.425781 Z M 13.953125 -3.160156 L 13.953125 -6.316406 L 10.792969 -6.316406 L 10.792969 -3.160156 Z M 13.953125 -3.160156 "/></g></g></g><g fill="#ff00ff" fill-opacity="1"><g transform="translate(52.857582, 33.697927)"><g><path d="M 4.476562 -10.792969 L 4.476562 -18.425781 L 1.316406 -18.425781 L 1.316406 0 L 4.476562 0 L 4.476562 -7.632812 L 7.632812 -7.632812 L 7.632812 -4.476562 L 10.792969 -4.476562 L 10.792969 0 L 13.953125 0 L 13.953125 -4.476562 L 10.792969 -4.476562 L 10.792969 -7.632812 L 7.632812 -7.632812 L 7.632812 -10.792969 Z M 10.792969 -18.425781 L 10.792969 -13.953125 L 13.953125 -13.953125 L 13.953125 -18.425781 Z M 7.632812 -13.953125 L 7.632812 -10.792969 L 10.792969 -10.792969 L 10.792969 -13.953125 Z M 7.632812 -13.953125 "/></g></g></g><g fill="#ff00ff" fill-opacity="1"><g transform="translate(70.91162, 33.697927)"><g/></g></g><g fill="#ff00ff" fill-opacity="1"><g transform="translate(82.939352, 33.697927)"><g><path d="M 4.476562 -15.269531 L 10.792969 -15.269531 L 10.792969 -10.792969 L 4.476562 -10.792969 L 4.476562 -15.269531 L 1.316406 -15.269531 L 1.316406 0 L 4.476562 0 L 4.476562 -7.632812 L 10.792969 -7.632812 L 10.792969 0 L 13.953125 0 L 13.953125 -15.269531 L 10.792969 -15.269531 L 10.792969 -18.425781 L 4.476562 -18.425781 Z M 4.476562 -15.269531 "/></g></g></g><g fill="#ff00ff" fill-opacity="1"><g transform="translate(100.993396, 33.697927)"><g><path d="M 1.316406 0 L 4.476562 0 L 4.476562 -18.425781 L 1.316406 -18.425781 Z M 1.316406 0 "/></g></g></g><g fill="#ff00ff" fill-opacity="1"><g transform="translate(109.600084, 33.697927)"><g/></g></g><g fill="#ff00ff" fill-opacity="1"><g transform="translate(121.627821, 33.697927)"><g><path d="M 1.316406 -18.425781 L 1.316406 -15.269531 L 6.054688 -15.269531 L 6.054688 0 L 9.214844 0 L 9.214844 -15.269531 L 13.953125 -15.269531 L 13.953125 -18.425781 Z M 1.316406 -18.425781 "/></g></g></g><g fill="#ff00ff" fill-opacity="1"><g transform="translate(139.681866, 33.697927)"><g><path d="M 1.316406 -18.425781 L 1.316406 0 L 4.476562 0 L 4.476562 -7.632812 L 10.792969 -7.632812 L 10.792969 0 L 13.953125 0 L 13.953125 -18.425781 L 10.792969 -18.425781 L 10.792969 -10.792969 L 4.476562 -10.792969 L 4.476562 -18.425781 Z M 1.316406 -18.425781 "/></g></g></g><g fill="#ff00ff" fill-opacity="1"><g transform="translate(157.762226, 33.697927)"><g><path d="M 4.476562 -15.269531 L 10.792969 -15.269531 L 10.792969 -3.160156 L 13.953125 -3.160156 L 13.953125 -15.269531 L 10.792969 -15.269531 L 10.792969 -18.425781 L 4.476562 -18.425781 Z M 4.476562 -15.269531 L 1.316406 -15.269531 L 1.316406 -3.160156 L 4.476562 -3.160156 L 4.476562 0 L 10.792969 0 L 10.792969 -3.160156 L 4.476562 -3.160156 Z M 4.476562 -15.269531 "/></g></g></g><g fill="#ff00ff" fill-opacity="1"><g transform="translate(175.816271, 33.697927)"><g><path d="M 1.316406 -18.425781 L 1.316406 0 L 4.476562 0 L 4.476562 -12.109375 L 7.632812 -12.109375 L 7.632812 -8.949219 L 10.792969 -8.949219 L 10.792969 -5.792969 L 13.953125 -5.792969 L 13.953125 0 L 17.109375 0 L 17.109375 -18.425781 L 13.953125 -18.425781 L 13.953125 -8.949219 L 10.792969 -8.949219 L 10.792969 -12.109375 L 7.632812 -12.109375 L 7.632812 -15.269531 L 4.476562 -15.269531 L 4.476562 -18.425781 Z M 1.316406 -18.425781 "/></g></g></g><g fill="#00ffff" fill-opacity="1"><g transform="translate(0.649039, 34.19157)"><g><path d="M 1.316406 -18.425781 L 1.316406 0 L 4.476562 0 L 4.476562 -7.632812 L 10.792969 -7.632812 L 10.792969 0 L 13.953125 0 L 13.953125 -18.425781 L 10.792969 -18.425781 L 10.792969 -10.792969 L 4.476562 -10.792969 L 4.476562 -18.425781 Z M 1.316406 -18.425781 "/></g></g></g><g fill="#00ffff" fill-opacity="1"><g transform="translate(18.729395, 34.19157)"><g><path d="M 4.476562 -15.269531 L 10.792969 -15.269531 L 10.792969 -10.792969 L 4.476562 -10.792969 L 4.476562 -15.269531 L 1.316406 -15.269531 L 1.316406 0 L 4.476562 0 L 4.476562 -7.632812 L 10.792969 -7.632812 L 10.792969 0 L 13.953125 0 L 13.953125 -15.269531 L 10.792969 -15.269531 L 10.792969 -18.425781 L 4.476562 -18.425781 Z M 4.476562 -15.269531 "/></g></g></g><g fill="#00ffff" fill-opacity="1"><g transform="translate(36.783435, 34.19157)"><g><path d="M 1.316406 -15.269531 L 1.316406 -3.160156 L 4.476562 -3.160156 L 4.476562 0 L 10.792969 0 L 10.792969 -3.160156 L 4.476562 -3.160156 L 4.476562 -15.269531 Z M 4.476562 -18.425781 L 4.476562 -15.269531 L 10.792969 -15.269531 L 10.792969 -12.109375 L 13.953125 -12.109375 L 13.953125 -15.269531 L 10.792969 -15.269531 L 10.792969 -18.425781 Z M 13.953125 -3.160156 L 13.953125 -6.316406 L 10.792969 -6.316406 L 10.792969 -3.160156 Z M 13.953125 -3.160156 "/></g></g></g><g fill="#00ffff" fill-opacity="1"><g transform="translate(54.837476, 34.19157)"><g><path d="M 4.476562 -10.792969 L 4.476562 -18.425781 L 1.316406 -18.425781 L 1.316406 0 L 4.476562 0 L 4.476562 -7.632812 L 7.632812 -7.632812 L 7.632812 -4.476562 L 10.792969 -4.476562 L 10.792969 0 L 13.953125 0 L 13.953125 -4.476562 L 10.792969 -4.476562 L 10.792969 -7.632812 L 7.632812 -7.632812 L 7.632812 -10.792969 Z M 10.792969 -18.425781 L 10.792969 -13.953125 L 13.953125 -13.953125 L 13.953125 -18.425781 Z M 7.632812 -13.953125 L 7.632812 -10.792969 L 10.792969 -10.792969 L 10.792969 -13.953125 Z M 7.632812 -13.953125 "/></g></g></g><g fill="#00ffff" fill-opacity="1"><g transform="translate(72.891514, 34.19157)"><g/></g></g><g fill="#00ffff" fill-opacity="1"><g transform="translate(84.919246, 34.19157)"><g><path d="M 4.476562 -15.269531 L 10.792969 -15.269531 L 10.792969 -10.792969 L 4.476562 -10.792969 L 4.476562 -15.269531 L 1.316406 -15.269531 L 1.316406 0 L 4.476562 0 L 4.476562 -7.632812 L 10.792969 -7.632812 L 10.792969 0 L 13.953125 0 L 13.953125 -15.269531 L 10.792969 -15.269531 L 10.792969 -18.425781 L 4.476562 -18.425781 Z M 4.476562 -15.269531 "/></g></g></g><g fill="#00ffff" fill-opacity="1"><g transform="translate(102.97329, 34.19157)"><g><path d="M 1.316406 0 L 4.476562 0 L 4.476562 -18.425781 L 1.316406 -18.425781 Z M 1.316406 0 "/></g></g></g><g fill="#00ffff" fill-opacity="1"><g transform="translate(111.579978, 34.19157)"><g/></g></g><g fill="#00ffff" fill-opacity="1"><g transform="translate(123.607715, 34.19157)"><g><path d="M 1.316406 -18.425781 L 1.316406 -15.269531 L 6.054688 -15.269531 L 6.054688 0 L 9.214844 0 L 9.214844 -15.269531 L 13.953125 -15.269531 L 13.953125 -18.425781 Z M 1.316406 -18.425781 "/></g></g></g><g fill="#00ffff" fill-opacity="1"><g transform="translate(141.66176, 34.19157)"><g><path d="M 1.316406 -18.425781 L 1.316406 0 L 4.476562 0 L 4.476562 -7.632812 L 10.792969 -7.632812 L 10.792969 0 L 13.953125 0 L 13.953125 -18.425781 L 10.792969 -18.425781 L 10.792969 -10.792969 L 4.476562 -10.792969 L 4.476562 -18.425781 Z M 1.316406 -18.425781 "/></g></g></g><g fill="#00ffff" fill-opacity="1"><g transform="translate(159.74212, 34.19157)"><g><path d="M 4.476562 -15.269531 L 10.792969 -15.269531 L 10.792969 -3.160156 L 13.953125 -3.160156 L 13.953125 -15.269531 L 10.792969 -15.269531 L 10.792969 -18.425781 L 4.476562 -18.425781 Z M 4.476562 -15.269531 L 1.316406 -15.269531 L 1.316406 -3.160156 L 4.476562 -3.160156 L 4.476562 0 L 10.792969 0 L 10.792969 -3.160156 L 4.476562 -3.160156 Z M 4.476562 -15.269531 "/></g></g></g><g clip-path="url(#d5677f1790)"><g fill="#00ffff" fill-opacity="1"><g transform="translate(177.796165, 34.19157)"><g><path d="M 1.316406 -18.425781 L 1.316406 0 L 4.476562 0 L 4.476562 -12.109375 L 7.632812 -12.109375 L 7.632812 -8.949219 L 10.792969 -8.949219 L 10.792969 -5.792969 L 13.953125 -5.792969 L 13.953125 0 L 17.109375 0 L 17.109375 -18.425781 L 13.953125 -18.425781 L 13.953125 -8.949219 L 10.792969 -8.949219 L 10.792969 -12.109375 L 7.632812 -12.109375 L 7.632812 -15.269531 L 4.476562 -15.269531 L 4.476562 -18.425781 Z M 1.316406 -18.425781 "/></g></g></g></g><g fill="#3b1b72" fill-opacity="1"><g transform="translate(-0.340908, 33.944749)"><g><path d="M 1.316406 -18.425781 L 1.316406 0 L 4.476562 0 L 4.476562 -7.632812 L 10.792969 -7.632812 L 10.792969 0 L 13.953125 0 L 13.953125 -18.425781 L 10.792969 -18.425781 L 10.792969 -10.792969 L 4.476562 -10.792969 L 4.476562 -18.425781 Z M 1.316406 -18.425781 "/></g></g></g><g fill="#3b1b72" fill-opacity="1"><g transform="translate(17.739448, 33.944749)"><g><path d="M 4.476562 -15.269531 L 10.792969 -15.269531 L 10.792969 -10.792969 L 4.476562 -10.792969 L 4.476562 -15.269531 L 1.316406 -15.269531 L 1.316406 0 L 4.476562 0 L 4.476562 -7.632812 L 10.792969 -7.632812 L 10.792969 0 L 13.953125 0 L 13.953125 -15.269531 L 10.792969 -15.269531 L 10.792969 -18.425781 L 4.476562 -18.425781 Z M 4.476562 -15.269531 "/></g></g></g><g fill="#3b1b72" fill-opacity="1"><g transform="translate(35.793488, 33.944749)"><g><path d="M 1.316406 -15.269531 L 1.316406 -3.160156 L 4.476562 -3.160156 L 4.476562 0 L 10.792969 0 L 10.792969 -3.160156 L 4.476562 -3.160156 L 4.476562 -15.269531 Z M 4.476562 -18.425781 L 4.476562 -15.269531 L 10.792969 -15.269531 L 10.792969 -12.109375 L 13.953125 -12.109375 L 13.953125 -15.269531 L 10.792969 -15.269531 L 10.792969 -18.425781 Z M 13.953125 -3.160156 L 13.953125 -6.316406 L 10.792969 -6.316406 L 10.792969 -3.160156 Z M 13.953125 -3.160156 "/></g></g></g><g fill="#3b1b72" fill-opacity="1"><g transform="translate(53.847529, 33.944749)"><g><path d="M 4.476562 -10.792969 L 4.476562 -18.425781 L 1.316406 -18.425781 L 1.316406 0 L 4.476562 0 L 4.476562 -7.632812 L 7.632812 -7.632812 L 7.632812 -4.476562 L 10.792969 -4.476562 L 10.792969 0 L 13.953125 0 L 13.953125 -4.476562 L 10.792969 -4.476562 L 10.792969 -7.632812 L 7.632812 -7.632812 L 7.632812 -10.792969 Z M 10.792969 -18.425781 L 10.792969 -13.953125 L 13.953125 -13.953125 L 13.953125 -18.425781 Z M 7.632812 -13.953125 L 7.632812 -10.792969 L 10.792969 -10.792969 L 10.792969 -13.953125 Z M 7.632812 -13.953125 "/></g></g></g><g fill="#3b1b72" fill-opacity="1"><g transform="translate(71.901567, 33.944749)"><g/></g></g><g fill="#3b1b72" fill-opacity="1"><g transform="translate(83.929299, 33.944749)"><g><path d="M 4.476562 -15.269531 L 10.792969 -15.269531 L 10.792969 -10.792969 L 4.476562 -10.792969 L 4.476562 -15.269531 L 1.316406 -15.269531 L 1.316406 0 L 4.476562 0 L 4.476562 -7.632812 L 10.792969 -7.632812 L 10.792969 0 L 13.953125 0 L 13.953125 -15.269531 L 10.792969 -15.269531 L 10.792969 -18.425781 L 4.476562 -18.425781 Z M 4.476562 -15.269531 "/></g></g></g><g fill="#3b1b72" fill-opacity="1"><g transform="translate(101.983343, 33.944749)"><g><path d="M 1.316406 0 L 4.476562 0 L 4.476562 -18.425781 L 1.316406 -18.425781 Z M 1.316406 0 "/></g></g></g><g fill="#3b1b72" fill-opacity="1"><g transform="translate(110.590031, 33.944749)"><g/></g></g><g fill="#3b1b72" fill-opacity="1"><g transform="translate(122.617768, 33.944749)"><g><path d="M 1.316406 -18.425781 L 1.316406 -15.269531 L 6.054688 -15.269531 L 6.054688 0 L 9.214844 0 L 9.214844 -15.269531 L 13.953125 -15.269531 L 13.953125 -18.425781 Z M 1.316406 -18.425781 "/></g></g></g><g fill="#3b1b72" fill-opacity="1"><g transform="translate(140.671813, 33.944749)"><g><path d="M 1.316406 -18.425781 L 1.316406 0 L 4.476562 0 L 4.476562 -7.632812 L 10.792969 -7.632812 L 10.792969 0 L 13.953125 0 L 13.953125 -18.425781 L 10.792969 -18.425781 L 10.792969 -10.792969 L 4.476562 -10.792969 L 4.476562 -18.425781 Z M 1.316406 -18.425781 "/></g></g></g><g fill="#3b1b72" fill-opacity="1"><g transform="translate(158.752173, 33.944749)"><g><path d="M 4.476562 -15.269531 L 10.792969 -15.269531 L 10.792969 -3.160156 L 13.953125 -3.160156 L 13.953125 -15.269531 L 10.792969 -15.269531 L 10.792969 -18.425781 L 4.476562 -18.425781 Z M 4.476562 -15.269531 L 1.316406 -15.269531 L 1.316406 -3.160156 L 4.476562 -3.160156 L 4.476562 0 L 10.792969 0 L 10.792969 -3.160156 L 4.476562 -3.160156 Z M 4.476562 -15.269531 "/></g></g></g><g fill="#3b1b72" fill-opacity="1"><g transform="translate(176.806217, 33.944749)"><g><path d="M 1.316406 -18.425781 L 1.316406 0 L 4.476562 0 L 4.476562 -12.109375 L 7.632812 -12.109375 L 7.632812 -8.949219 L 10.792969 -8.949219 L 10.792969 -5.792969 L 13.953125 -5.792969 L 13.953125 0 L 17.109375 0 L 17.109375 -18.425781 L 13.953125 -18.425781 L 13.953125 -8.949219 L 10.792969 -8.949219 L 10.792969 -12.109375 L 7.632812 -12.109375 L 7.632812 -15.269531 L 4.476562 -15.269531 L 4.476562 -18.425781 Z M 1.316406 -18.425781 "/></g></g></g></svg>